<?xml version="1.0" encoding="iso-8859-1"?>
<!-- Generator: Adobe Illustrator 19.0.0, SVG Export Plug-In . SVG Version: 6.00 Build 0)  -->
<svg xmlns="http://www.w3.org/2000/svg" xmlns:xlink="http://www.w3.org/1999/xlink" version="1.1" id="Capa_1" x="0px" y="0px" viewBox="0 0 512.001 512.001" style="enable-background:new 0 0 512.001 512.001;" xml:space="preserve" width="512px" height="512px">
<g>
	<g>
		<g>
			<path d="M436.058,0.918c-3.531-1.765-7.061-0.883-9.709,1.765l-29.127,29.127L368.095,2.684c-3.531-3.531-8.826-3.531-12.357,0     l-29.127,29.127L297.484,2.684c-3.531-3.531-8.826-3.531-12.357,0L256,31.811L226.874,2.684c-3.531-3.531-8.826-3.531-12.357,0     L185.39,31.811L156.263,2.684c-3.531-3.531-8.826-3.531-12.357,0l-29.127,29.127L85.652,2.684     c-2.648-2.648-6.178-3.531-9.709-1.765c-3.531,0.883-5.296,4.413-5.296,7.944v494.277c0,3.531,1.765,7.061,5.296,7.944     c3.531,1.765,7.061,0.883,9.709-1.765l29.127-29.127l29.127,29.127c3.531,3.531,8.826,3.531,12.357,0l29.127-29.127     l29.127,29.127c3.531,3.531,8.826,3.531,12.357,0L256,480.19l29.127,29.127c3.531,3.531,8.826,3.531,12.357,0l29.127-29.127     l29.127,29.127c3.531,3.531,8.826,3.531,12.357,0l29.127-29.127l29.127,29.127c1.765,1.765,3.531,2.648,6.178,2.648     c0.883,0,2.648,0,3.531-0.883c3.531-1.765,5.296-4.413,5.296-7.944V8.862C441.354,5.332,439.589,1.801,436.058,0.918z      M423.701,481.956l-20.301-20.301c-3.531-3.531-8.826-3.531-12.357,0l-29.127,29.127l-29.127-29.127     c-1.765-1.765-3.531-2.648-6.178-2.648s-4.413,0.883-6.178,2.648l-29.127,29.127l-29.127-29.127     c-3.531-3.531-8.826-3.531-12.357,0l-29.127,29.127l-29.127-29.127c-3.531-3.531-8.826-3.531-12.357,0l-29.127,29.127     l-29.127-29.127c-3.531-3.531-8.826-3.531-12.357,0l-20.301,20.301V30.045L108.6,50.346c3.531,3.531,8.826,3.531,12.357,0     l29.127-29.127l29.127,29.127c3.531,3.531,8.826,3.531,12.357,0l29.127-29.127l29.127,29.127c3.531,3.531,8.826,3.531,12.357,0     l29.127-29.127l29.127,29.127c3.531,3.531,8.826,3.531,12.357,0l29.127-29.127l29.127,29.127c3.531,3.531,8.826,3.531,12.357,0     l20.301-20.301V481.956z" fill="#FFFFFF"/>
			<path d="M256,211.869c-63.55,0-114.743,51.193-114.743,114.743S192.451,441.354,256,441.354s114.743-51.193,114.743-114.743     S319.55,211.869,256,211.869z M256,423.701c-53.841,0-97.09-43.249-97.09-97.09c0-53.841,43.249-97.09,97.09-97.09     c53.841,0,97.09,43.249,97.09,97.09C353.091,380.452,309.841,423.701,256,423.701z" fill="#FFFFFF"/>
			<path d="M150.084,88.299h141.222c5.296,0,8.826-3.531,8.826-8.826c0-5.296-3.531-8.826-8.826-8.826H150.084     c-5.296,0-8.826,3.531-8.826,8.826C141.258,84.769,144.788,88.299,150.084,88.299z" fill="#FFFFFF"/>
			<path d="M361.917,70.647h-35.305c-5.296,0-8.826,3.531-8.826,8.826c0,5.296,3.531,8.826,8.826,8.826h35.305     c5.296,0,8.826-3.531,8.826-8.826C370.743,74.177,367.213,70.647,361.917,70.647z" fill="#FFFFFF"/>
			<path d="M150.084,123.605h35.305c5.296,0,8.826-3.531,8.826-8.826c0-5.296-3.531-8.826-8.826-8.826h-35.305     c-5.296,0-8.826,3.531-8.826,8.826C141.258,120.074,144.788,123.605,150.084,123.605z" fill="#FFFFFF"/>
			<path d="M361.917,105.952H220.695c-5.296,0-8.826,3.531-8.826,8.826c0,5.296,3.531,8.826,8.826,8.826h141.222     c5.296,0,8.826-3.531,8.826-8.826C370.743,109.483,367.213,105.952,361.917,105.952z" fill="#FFFFFF"/>
			<path d="M150.084,158.91H256c5.296,0,8.826-3.531,8.826-8.826c0-5.296-3.531-8.826-8.826-8.826H150.084     c-5.296,0-8.826,3.531-8.826,8.826C141.258,155.38,144.788,158.91,150.084,158.91z" fill="#FFFFFF"/>
			<path d="M361.917,141.258h-70.611c-5.296,0-8.826,3.531-8.826,8.826c0,5.296,3.531,8.826,8.826,8.826h70.611     c5.296,0,8.826-3.531,8.826-8.826C370.743,144.788,367.213,141.258,361.917,141.258z" fill="#FFFFFF"/>
			<path d="M238.348,300.132h52.958c5.296,0,8.826-3.531,8.826-8.826c0-5.296-3.531-8.826-8.826-8.826h-26.479V256     c0-5.296-3.531-8.826-8.826-8.826s-8.826,3.531-8.826,8.826v26.479h-8.826c-15.005,0-26.479,11.474-26.479,26.479     s11.474,26.479,26.479,26.479h35.305c5.296,0,8.826,3.531,8.826,8.826c0,5.296-3.531,8.826-8.826,8.826h-52.958     c-5.296,0-8.826,3.531-8.826,8.826c0,5.296,3.531,8.826,8.826,8.826h26.479v26.479c0,5.296,3.531,8.826,8.826,8.826     s8.826-3.531,8.826-8.826v-26.479h8.826c15.005,0,26.479-11.474,26.479-26.479s-11.474-26.479-26.479-26.479h-35.305     c-5.296,0-8.826-3.531-8.826-8.826C229.521,303.663,233.052,300.132,238.348,300.132z" fill="#FFFFFF"/>
			<path d="M361.917,176.563H150.084c-5.296,0-8.826,3.531-8.826,8.826c0,5.296,3.531,8.826,8.826,8.826h211.833     c5.296,0,8.826-3.531,8.826-8.826C370.743,180.094,367.213,176.563,361.917,176.563z" fill="#FFFFFF"/>
		</g>
	</g>
</g>
<g>
</g>
<g>
</g>
<g>
</g>
<g>
</g>
<g>
</g>
<g>
</g>
<g>
</g>
<g>
</g>
<g>
</g>
<g>
</g>
<g>
</g>
<g>
</g>
<g>
</g>
<g>
</g>
<g>
</g>
</svg>
